# Blender 4.1.0
# www.blender.org
mtllib health_cube.mtl
o Cube
v 1.000000 1.000000 -1.000000
v 1.000000 -1.000000 -1.000000
v 1.000000 1.000000 1.000000
v 1.000000 -1.000000 1.000000
v -1.000000 1.000000 -1.000000
v -1.000000 -1.000000 -1.000000
v -1.000000 1.000000 1.000000
v -1.000000 -1.000000 1.000000
v 0.786954 1.000000 -0.786954
v -0.786954 1.000000 -0.786954
v -0.786954 1.000000 0.786954
v 0.786954 1.000000 0.786954
v 0.786954 -0.786954 1.000000
v 0.786954 0.786954 1.000000
v -0.786954 0.786954 1.000000
v -0.786954 -0.786954 1.000000
v -1.000000 -0.786954 0.786954
v -1.000000 0.786954 0.786954
v -1.000000 0.786954 -0.786954
v -1.000000 -0.786954 -0.786954
v -0.786954 -1.000000 -0.786954
v 0.786954 -1.000000 -0.786954
v 0.786954 -1.000000 0.786954
v -0.786954 -1.000000 0.786954
v 1.000000 -0.786954 -0.786954
v 1.000000 0.786954 -0.786954
v 1.000000 0.786954 0.786954
v 1.000000 -0.786954 0.786954
v -0.786954 -0.786954 -1.000000
v -0.786954 0.786954 -1.000000
v 0.786954 0.786954 -1.000000
v 0.786954 -0.786954 -1.000000
v -0.786954 1.000000 -0.786954
v 0.786954 1.000000 -0.786954
v 0.786954 1.000000 0.786954
v -0.786954 1.000000 0.786954
v 0.786954 0.786954 1.000000
v 0.786954 -0.786954 1.000000
v -0.786954 -0.786954 1.000000
v -0.786954 0.786954 1.000000
v -1.000000 -0.786954 0.786954
v -1.000000 0.786954 0.786954
v -1.000000 -0.786954 -0.786954
v -1.000000 0.786954 -0.786954
v 0.786954 -1.000000 -0.786954
v -0.786954 -1.000000 -0.786954
v -0.786954 -1.000000 0.786954
v 0.786954 -1.000000 0.786954
v 1.000000 0.786954 -0.786954
v 1.000000 -0.786954 -0.786954
v 1.000000 -0.786954 0.786954
v 1.000000 0.786954 0.786954
v -0.786954 0.786954 -1.000000
v -0.786954 -0.786954 -1.000000
v 0.786954 -0.786954 -1.000000
v 0.786954 0.786954 -1.000000
v -0.786954 1.000000 -0.786954
v 0.786954 1.000000 -0.786954
v 0.786954 1.000000 0.786954
v -0.786954 1.000000 0.786954
v 0.786954 0.786954 1.000000
v 0.786954 -0.786954 1.000000
v -0.786954 -0.786954 1.000000
v -0.786954 0.786954 1.000000
v -1.000000 -0.786954 0.786954
v -1.000000 0.786954 0.786954
v -1.000000 -0.786954 -0.786954
v -1.000000 0.786954 -0.786954
v 0.786954 -1.000000 -0.786954
v -0.786954 -1.000000 -0.786954
v -0.786954 -1.000000 0.786954
v 0.786954 -1.000000 0.786954
v 1.000000 0.786954 -0.786954
v 1.000000 -0.786954 -0.786954
v 1.000000 -0.786954 0.786954
v 1.000000 0.786954 0.786954
v -0.786954 0.786954 -1.000000
v -0.786954 -0.786954 -1.000000
v 0.786954 -0.786954 -1.000000
v 0.786954 0.786954 -1.000000
v 0.786954 -0.789618 -0.786954
v -0.786954 -0.789618 -0.786954
v -0.786954 -0.789618 0.786954
v 0.786954 -0.789618 0.786954
v -0.778823 -0.786954 0.786954
v -0.778823 0.786954 0.786954
v -0.778823 -0.786954 -0.786954
v -0.778823 0.786954 -0.786954
v 0.786954 0.786954 0.783725
v 0.786954 -0.786954 0.783725
v -0.786954 -0.786954 0.783725
v -0.786954 0.786954 0.783725
v 0.783031 0.786954 -0.786954
v 0.783031 -0.786954 -0.786954
v 0.783031 -0.786954 0.786954
v 0.783031 0.786954 0.786954
v -0.786954 0.786954 -0.781514
v -0.786954 -0.786954 -0.781514
v 0.786954 -0.786954 -0.781514
v 0.786954 0.786954 -0.781514
v -0.786954 0.785452 -0.786954
v 0.786954 0.785452 -0.786954
v 0.786954 0.785452 0.786954
v -0.786954 0.785452 0.786954
vn -0.0000 1.0000 -0.0000
vn -0.0000 -0.0000 1.0000
vn -1.0000 -0.0000 -0.0000
vn -0.0000 -1.0000 -0.0000
vn 1.0000 -0.0000 -0.0000
vn -0.0000 -0.0000 -1.0000
vn 0.6354 -0.0000 0.7722
vn -0.3691 -0.0000 0.9294
vn -0.5561 -0.0000 -0.8311
vn 0.8111 -0.0000 -0.5849
vn -0.1817 0.9834 -0.0000
vn -0.0000 0.9639 -0.2662
vn 0.3576 0.9339 -0.0000
vn -0.0000 0.9067 0.4218
vt 0.598369 0.973369
vt 0.401631 0.973369
vt 0.401631 0.723369
vt 0.401631 0.526631
vt 0.598369 0.026631
vt 0.598369 0.223369
vt 0.848369 0.723369
vt 0.651631 0.723369
vt 0.401631 0.276631
vt 0.598369 0.276631
vt 0.151631 0.723369
vt 0.151631 0.526631
vt 0.625000 0.500000
vt 0.875000 0.500000
vt 0.848369 0.526631
vt 0.651631 0.526631
vt 0.875000 0.750000
vt 0.625000 0.750000
vt 0.375000 0.750000
vt 0.598369 0.776631
vt 0.401631 0.776631
vt 0.625000 1.000000
vt 0.375000 1.000000
vt 0.375000 0.000000
vt 0.625000 0.000000
vt 0.401631 0.026631
vt 0.625000 0.250000
vt 0.375000 0.250000
vt 0.401631 0.223369
vt 0.125000 0.500000
vt 0.375000 0.500000
vt 0.348369 0.526631
vt 0.348369 0.723369
vt 0.125000 0.750000
vt 0.598369 0.526631
vt 0.598369 0.723369
vt 0.598369 0.473369
vt 0.401631 0.473369
s 0
usemtl Material
f 15/1/1 16/2/1 39/2/1 40/1/1
f 28/3/1 25/4/1 50/4/1 51/3/1
f 18/5/1 19/6/1 44/6/1 42/5/1
f 11/7/1 12/8/1 35/8/1 36/7/1
f 29/9/1 30/10/1 53/10/1 54/9/1
f 24/11/1 21/12/1 46/12/1 47/11/1
f 1/13/1 5/14/1 10/15/1 9/16/1
f 5/14/1 7/17/1 11/7/1 10/15/1
f 7/17/1 3/18/1 12/8/1 11/7/1
f 3/18/1 1/13/1 9/16/1 12/8/1
f 4/19/2 3/18/2 14/20/2 13/21/2
f 3/18/2 7/22/2 15/1/2 14/20/2
f 7/22/2 8/23/2 16/2/2 15/1/2
f 8/23/2 4/19/2 13/21/2 16/2/2
f 8/24/3 7/25/3 18/5/3 17/26/3
f 7/25/3 5/27/3 19/6/3 18/5/3
f 5/27/3 6/28/3 20/29/3 19/6/3
f 6/28/3 8/24/3 17/26/3 20/29/3
f 6/30/4 2/31/4 22/32/4 21/12/4
f 2/31/4 4/19/4 23/33/4 22/32/4
f 4/19/4 8/34/4 24/11/4 23/33/4
f 8/34/4 6/30/4 21/12/4 24/11/4
f 2/31/5 1/13/5 26/35/5 25/4/5
f 1/13/5 3/18/5 27/36/5 26/35/5
f 3/18/5 4/19/5 28/3/5 27/36/5
f 4/19/5 2/31/5 25/4/5 28/3/5
f 6/28/6 5/27/6 30/10/6 29/9/6
f 5/27/6 1/13/6 31/37/6 30/10/6
f 1/13/6 2/31/6 32/38/6 31/37/6
f 2/31/6 6/28/6 29/9/6 32/38/6
f 22/32/1 23/33/1 48/33/1 45/32/1
f 32/38/1 29/9/1 54/9/1 55/38/1
f 19/6/1 20/29/1 43/29/1 44/6/1
f 26/35/1 27/36/1 52/36/1 49/35/1
f 23/33/1 24/11/1 47/11/1 48/33/1
f 30/10/1 31/37/1 56/37/1 53/10/1
f 27/36/1 28/3/1 51/3/1 52/36/1
f 31/37/1 32/38/1 55/38/1 56/37/1
f 9/16/1 10/15/1 33/15/1 34/16/1
f 13/21/1 14/20/1 37/20/1 38/21/1
f 12/8/1 9/16/1 34/16/1 35/8/1
f 17/26/1 18/5/1 42/5/1 41/26/1
f 16/2/1 13/21/1 38/21/1 39/2/1
f 21/12/1 22/32/1 45/32/1 46/12/1
f 10/15/1 11/7/1 36/7/1 33/15/1
f 20/29/1 17/26/1 41/26/1 43/29/1
f 25/4/1 26/35/1 49/35/1 50/4/1
f 14/20/1 15/1/1 40/1/1 37/20/1
f 46/12/1 45/32/1 69/32/1 70/12/1
f 39/2/1 38/21/1 62/21/1 63/2/1
f 54/9/1 53/10/1 77/10/1 78/9/1
f 47/11/1 46/12/1 70/12/1 71/11/1
f 37/20/1 40/1/1 64/1/1 61/20/1
f 55/38/1 54/9/1 78/9/1 79/38/1
f 45/32/1 48/33/1 72/33/1 69/32/1
f 40/1/1 39/2/1 63/2/1 64/1/1
f 53/10/1 56/37/1 80/37/1 77/10/1
f 34/16/1 33/15/1 57/15/1 58/16/1
f 48/33/1 47/11/1 71/11/1 72/33/1
f 41/26/1 42/5/1 66/5/1 65/26/1
f 56/37/1 55/38/1 79/38/1 80/37/1
f 35/8/1 34/16/1 58/16/1 59/8/1
f 50/4/1 49/35/1 73/35/1 74/4/1
f 43/29/1 41/26/1 65/26/1 67/29/1
f 33/15/1 36/7/1 60/7/1 57/15/1
f 51/3/1 50/4/1 74/4/1 75/3/1
f 42/5/1 44/6/1 68/6/1 66/5/1
f 36/7/1 35/8/1 59/8/1 60/7/1
f 49/35/1 52/36/1 76/36/1 73/35/1
f 44/6/1 43/29/1 67/29/1 68/6/1
f 38/21/1 37/20/1 61/20/1 62/21/1
f 52/36/1 51/3/1 75/3/1 76/36/1
f 70/12/2 69/32/2 81/32/2 82/12/2
f 72/33/6 71/11/6 83/11/6 84/33/6
f 71/11/5 70/12/5 82/12/5 83/11/5
f 69/32/3 72/33/3 84/33/3 81/32/3
f 66/5/4 68/6/4 88/6/4 86/5/4
f 65/26/6 66/5/6 86/5/6 85/26/6
f 68/6/2 67/29/2 87/29/2 88/6/2
f 67/29/1 65/26/1 85/26/1 87/29/1
f 61/20/4 64/1/4 92/1/4 89/20/4
f 62/21/3 61/20/3 89/20/3 90/21/3
f 64/1/5 63/2/5 91/2/5 92/1/5
f 63/2/1 62/21/1 90/21/1 91/2/1
f 76/36/6 75/3/6 95/3/6 96/36/6
f 75/3/1 74/4/1 94/4/1 95/3/1
f 73/35/4 76/36/4 96/36/4 93/35/4
f 74/4/2 73/35/2 93/35/2 94/4/2
f 80/37/3 79/38/3 99/38/3 100/37/3
f 79/38/1 78/9/1 98/9/1 99/38/1
f 77/10/4 80/37/4 100/37/4 97/10/4
f 78/9/5 77/10/5 97/10/5 98/9/5
f 96/36/7 95/3/7 90/21/7 89/20/7
f 92/1/8 91/2/8 85/26/8 86/5/8
f 98/9/9 97/10/9 88/6/9 87/29/9
f 100/37/10 99/38/10 94/4/10 93/35/10
f 59/8/3 58/16/3 102/16/3 103/8/3
f 57/15/5 60/7/5 104/7/5 101/15/5
f 58/16/2 57/15/2 101/15/2 102/16/2
f 60/7/6 59/8/6 103/8/6 104/7/6
f 101/15/11 104/7/11 86/5/11 88/6/11
f 102/16/12 101/15/12 97/10/12 100/37/12
f 103/8/13 102/16/13 93/35/13 96/36/13
f 104/7/14 103/8/14 89/20/14 92/1/14
