# Blender 4.1.0
# www.blender.org
mtllib pistol.mtl
o Cube
v -0.809497 -1.000000 0.671800
v -0.809497 -1.000000 -0.671800
v 6.162442 -1.000000 1.000000
v 6.162442 -1.000000 -1.000000
v 1.974556 -1.000000 -0.671800
v 1.974556 -1.000000 0.671800
v 2.440452 -1.000000 -1.000000
v -1.000000 -1.000000 -1.000000
v -1.000000 -1.000000 1.000000
v 2.440452 -1.000000 1.000000
v 0.387890 -3.397581 -0.442982
v -1.447903 -3.397581 -0.442982
v -1.447903 -3.397581 0.442982
v 0.387890 -3.397581 0.442982
v -1.611516 0.425632 1.000000
v -1.611516 0.425632 -1.000000
v 6.646436 0.275291 -0.472478
v 6.646436 -0.352941 -0.472478
v 6.646436 0.275291 0.472478
v 6.646436 -0.352941 0.472478
v 4.099140 1.000000 0.225769
v 6.646436 -0.749909 -1.000000
v 4.099140 1.000000 -0.225768
v 6.646436 -0.749909 1.000000
v 6.847301 0.275291 -0.472478
v 6.847301 -0.352941 -0.472478
v 6.847301 0.275291 0.472478
v 6.847301 -0.352941 0.472478
v -1.431574 0.752742 1.000000
v -1.295559 1.000000 0.753847
v -1.295559 1.000000 -0.753847
v -1.431574 0.752742 -1.000000
v 6.162442 0.752697 1.000000
v 5.448933 1.000000 0.225768
v 5.448933 1.000000 -0.225768
v 6.162442 0.752697 -1.000000
v 6.646436 0.686020 -1.000000
v 6.646436 0.933367 -0.753847
v 6.646436 0.741306 -0.846041
v 6.646436 0.933367 0.753847
v 6.646436 0.686020 1.000000
v 6.646436 0.741306 0.846041
v 6.162442 1.000000 0.753847
v 6.162442 1.000000 -0.753847
v 2.433441 1.000000 0.753847
v 2.433442 1.000000 -0.753847
v 5.448933 1.442507 0.225768
v 5.448933 1.442507 -0.225768
v 4.099140 1.242890 0.225769
v 4.099140 1.242890 -0.225768
vn -0.9190 -0.3942 -0.0000
vn 0.1364 0.9907 -0.0000
vn 0.4591 -0.8884 -0.0000
vn -1.0000 -0.0000 -0.0000
vn -0.0000 -0.0000 -1.0000
vn -0.0000 -1.0000 -0.0000
vn 0.8339 -0.5519 -0.0000
vn -0.9663 0.2573 -0.0000
vn -0.0000 -0.0950 0.9955
vn -0.0000 -0.0950 -0.9955
vn -0.0000 -0.0000 1.0000
vn 1.0000 -0.0000 -0.0000
vn -0.0000 1.0000 -0.0000
vn -0.0000 0.7055 -0.7087
vn -0.0000 0.7055 0.7087
vn 0.0967 0.7021 0.7055
vn 0.0967 0.7021 -0.7055
vn -0.8762 0.4820 -0.0000
vn -0.1463 0.9892 -0.0000
vt 0.375000 0.000000
vt 0.500000 0.000000
vt 0.500000 0.250000
vt 0.375000 0.250000
vt 0.625000 0.530769
vt 0.625000 0.719231
vt 0.375000 0.750000
vt 0.375000 0.500000
vt 0.732298 0.596779
vt 0.732298 0.653221
vt 0.571189 0.250000
vt 0.594087 0.500000
vt 0.375000 0.375000
vt 0.250000 0.500000
vt 0.250000 0.750000
vt 0.238076 0.541025
vt 0.238076 0.708975
vt 0.136924 0.541025
vt 0.125000 0.500000
vt 0.136924 0.708975
vt 0.125000 0.750000
vt 0.594087 0.750000
vt 0.571189 1.000000
vt 0.500000 1.000000
vt 0.375000 1.000000
vt 0.375000 0.875000
vt 0.453347 0.684060
vt 0.453347 0.565940
vt 0.588264 0.500000
vt 0.546653 0.565940
vt 0.588264 0.500000
vt 0.602134 0.519245
vt 0.588264 0.750000
vt 0.546653 0.684060
vt 0.602134 0.519245
vt 0.602134 0.730755
vt 0.602134 0.730755
vt 0.588264 0.750000
vt 0.625000 0.500000
vt 0.625000 0.750000
vt 0.625000 0.250000
vt 0.625000 0.375000
vt 0.625000 0.750000
vt 0.625000 0.875000
vt 0.625000 1.000000
vt 0.571189 0.000000
vt 0.625000 0.030769
vt 0.625000 0.219231
vt 0.750000 0.530769
vt 0.875000 0.530769
vt 0.875000 0.719231
vt 0.750000 0.719231
vt 0.642702 0.596779
vt 0.642702 0.653221
s 0
f 9/1/1 15/2/1 16/3/1 8/4/1
f 44/5/2 43/6/2 40/6/2 38/5/2
f 3/7/3 4/8/3 22/8/3 24/7/3
f 23/9/4 21/10/4 49/10/4 50/9/4
f 8/4/5 16/3/5 32/11/5 36/12/5 4/8/5 7/13/5
f 7/14/6 4/8/6 3/7/6 10/15/6
f 5/16/7 6/17/7 14/17/7 11/16/7
f 5/16/6 2/18/6 8/19/6 7/14/6
f 2/18/6 1/20/6 9/21/6 8/19/6
f 1/20/6 6/17/6 10/15/6 9/21/6
f 6/17/6 5/16/6 7/14/6 10/15/6
f 12/18/6 11/16/6 14/17/6 13/20/6
f 1/20/8 2/18/8 12/18/8 13/20/8
f 6/17/9 1/20/9 13/20/9 14/17/9
f 2/18/10 5/16/10 11/16/10 12/18/10
f 3/7/11 33/22/11 29/23/11 15/24/11 9/25/11 10/26/11
f 20/27/6 18/28/6 26/28/6 28/27/6
f 4/8/5 36/12/5 37/29/5 22/8/5
f 17/30/12 18/28/12 22/8/12 37/31/12 39/32/12
f 33/22/11 3/7/11 24/7/11 41/33/11
f 19/34/12 17/30/12 39/35/12 38/5/12 40/6/12 42/36/12
f 20/27/12 19/34/12 42/37/12 41/38/12 24/7/12
f 18/28/12 20/27/12 24/7/12 22/8/12
f 26/28/12 25/30/12 27/34/12 28/27/12
f 17/30/13 19/34/13 27/34/13 25/30/13
f 19/34/11 20/27/11 28/27/11 27/34/11
f 18/28/5 17/30/5 25/30/5 26/28/5
f 37/29/12 38/39/12 39/35/12
f 40/6/12 41/40/12 42/37/12
f 31/41/14 46/42/14 44/39/14 36/12/14 32/11/14
f 43/43/15 45/44/15 30/45/15 29/23/15 33/22/15
f 40/6/16 43/6/16 33/22/16 41/33/16
f 44/5/17 38/5/17 37/29/17 36/12/17
f 15/2/18 29/46/18 30/47/18 31/48/18 32/11/18 16/3/18
f 46/49/13 31/50/13 30/51/13 45/52/13
f 35/53/13 34/54/13 43/6/13 44/5/13
f 34/54/13 21/10/13 45/52/13 43/6/13
f 21/10/13 23/9/13 46/49/13 45/52/13
f 23/9/13 35/53/13 44/5/13 46/49/13
f 48/53/19 50/9/19 49/10/19 47/54/19
f 34/54/12 35/53/12 48/53/12 47/54/12
f 35/53/5 23/9/5 50/9/5 48/53/5
f 21/10/11 34/54/11 47/54/11 49/10/11
