# Blender 4.1.0
# www.blender.org
mtllib shotgun.mtl
o Cube
v -1.758608 0.185685 -0.757772
v -3.426849 -1.000000 -1.000000
v -1.758608 0.185685 0.649160
v -3.426849 -1.000000 1.000000
v -1.758608 2.098973 -0.757772
v -5.499037 -1.423316 -0.740187
v -5.809712 -1.112642 -0.740187
v -5.809712 -1.112642 0.739676
v -5.499037 -1.423316 0.739676
v -1.758608 2.098973 0.649160
v -5.809712 -0.481286 -0.740187
v -5.694836 -0.345953 -0.743093
v -5.694836 -0.345953 0.736769
v -5.809712 -0.481286 0.739676
v -3.280497 1.618675 -1.054306
v -2.870663 2.051623 -1.054306
v -2.870663 2.051623 0.945694
v -3.280497 1.618675 0.945694
v -3.025098 1.051406 0.945694
v -3.195317 0.743547 0.951881
v -2.640103 0.656678 0.945694
v -3.195317 0.743547 -1.048119
v -3.025098 1.051406 -1.054306
v -2.640103 0.656678 -1.054306
v -1.758608 0.185685 0.649160
v -1.758608 2.098973 0.649160
v -1.758608 2.098973 -0.757772
v -1.758608 0.185685 -0.757772
v 1.515667 0.503723 0.331121
v 1.515667 1.811006 0.361192
v 1.515667 1.811006 -0.469804
v 1.515667 0.503723 -0.439733
v 1.515667 1.016801 0.331121
v 1.515667 1.016801 -0.439733
v 1.515667 1.237785 -0.469804
v 1.515667 1.237785 0.361192
v 1.515667 1.142329 0.456649
v 1.515667 1.142329 -0.565261
v 7.083511 1.237785 0.361192
v 7.083511 1.811006 0.361192
v 7.083511 1.811006 -0.469804
v 7.083511 1.237785 -0.469804
v 6.635737 1.016801 -0.439733
v 6.635737 0.503723 -0.439733
v 6.635737 0.503723 0.331121
v 6.635737 1.016801 0.331121
v -1.758608 1.770638 0.456649
v -1.758608 1.906462 0.320824
v -1.758608 2.002505 0.552691
v -1.758608 1.906462 -0.429436
v -1.758608 1.770638 -0.565261
v -1.758608 2.002505 -0.661303
v 1.515667 1.906462 0.320824
v 1.515667 1.770638 0.456649
v 1.515667 1.811041 0.361227
v 1.515667 1.770638 -0.565261
v 1.515667 1.906462 -0.429436
v 1.515667 1.811041 -0.469839
v -1.758608 0.378196 0.293151
v -1.758608 0.541693 0.456649
v -1.758608 0.262585 0.572259
v -1.758608 0.541693 -0.565261
v -1.758608 0.378196 -0.401763
v -1.758608 0.262585 -0.680871
v 1.515667 0.378196 -0.401763
v 1.515667 0.541693 -0.565261
v 1.515667 0.493806 -0.449650
v 1.515667 0.541693 0.456649
v 1.515667 0.378196 0.293151
v 1.515667 0.493806 0.341038
v 2.199960 1.471871 0.589194
v 2.199960 1.471871 -0.589194
v 5.707026 1.471871 0.589194
v 5.707026 1.471871 -0.589194
v 2.199960 0.294018 0.259801
v 2.199960 0.530326 0.589194
v 2.199960 0.530326 -0.589194
v 2.199960 0.294018 -0.259801
v 5.707026 0.530326 0.589194
v 5.707026 0.294018 0.259801
v 5.707026 0.294018 -0.259801
v 5.707026 0.530326 -0.589194
vn -1.0000 -0.0000 -0.0000
vn 0.5793 -0.8151 -0.0000
vn -0.9118 -0.4105 -0.0000
vn 0.2361 0.0165 -0.9716
vn -0.7071 -0.7071 -0.0000
vn 0.2002 -0.9798 -0.0000
vn -0.3996 0.9167 -0.0000
vn -0.0000 1.0000 -0.0000
vn -0.0425 0.9991 -0.0000
vn -0.7624 0.6471 -0.0000
vn -0.0182 -0.0036 0.9998
vn -0.7262 0.6875 -0.0000
vn -0.0323 -0.0431 -0.9985
vn 0.0131 0.0128 0.9998
vn -0.0131 -0.0128 -0.9998
vn -0.8751 0.4839 -0.0000
vn 0.2361 0.0165 0.9716
vn 1.0000 -0.0000 -0.0000
vn -0.0000 -0.0000 1.0000
vn -0.0000 -0.0000 -1.0000
vn -0.0000 -1.0000 -0.0000
vn -0.0000 0.7071 -0.7071
vn -0.0000 0.7071 0.7071
vn -0.0000 -0.7071 -0.7071
vn -0.0000 -0.7071 0.7071
vn -0.0000 -0.8125 -0.5829
vn -0.0000 -0.8125 0.5829
vt 0.448380 0.000000
vt 0.597502 0.000000
vt 0.597502 0.250000
vt 0.448380 0.250000
vt 0.375000 0.500000
vt 0.625000 0.500000
vt 0.625000 0.750000
vt 0.375000 0.750000
vt 0.750000 0.500000
vt 0.750000 0.750000
vt 0.625000 0.403852
vt 0.625000 0.375000
vt 0.625000 0.408662
vt 0.177484 0.500000
vt 0.177484 0.750000
vt 0.125000 0.750000
vt 0.125000 0.500000
vt 0.764241 0.500000
vt 0.865958 0.500000
vt 0.865958 0.750000
vt 0.764241 0.750000
vt 0.716338 0.500000
vt 0.716338 0.750000
vt 0.625000 0.000491
vt 0.625000 0.250000
vt 0.625000 0.846148
vt 0.625000 0.889241
vt 0.625000 0.990958
vt 0.597502 1.000000
vt 0.448380 1.000000
vt 0.375000 0.947516
vt 0.375000 0.302484
vt 0.625000 0.259042
vt 0.625000 0.360759
vt 0.625000 0.403852
vt 0.625000 0.879008
vt 0.625000 0.370992
vt 0.625000 0.875000
vt 0.625000 0.841338
vt 0.625000 0.698831
vt 0.625000 0.698831
vt 0.625000 0.698837
vt 0.625000 0.715792
vt 0.000000 0.000000
vt 0.625000 0.558342
vt 0.625000 0.691658
vt 0.625000 0.691657
vt 0.625000 0.558342
vt 0.625000 0.517142
vt 0.625000 0.534208
vt 0.625000 0.534208
vt 0.625000 0.513665
vt 0.625000 0.715792
vt 0.625000 0.556513
vt 0.625000 0.556513
vt 0.625000 0.554751
vt 0.625000 0.563260
vt 0.625000 0.686740
vt 0.625000 0.736335
vt 0.625000 0.732858
vt 0.625000 0.693487
vt 0.625000 0.551169
vt 0.625000 0.551169
vt 0.625000 0.695249
vt 0.625000 0.554751
vt 0.625000 0.551163
vt 0.625000 0.698837
vt 0.625000 0.551163
vt 0.625000 0.732858
vt 0.425156 0.750000
vt 0.625000 1.000000
vt 0.425156 1.000000
vt 0.375000 0.569882
vt 0.425156 0.500000
vt 0.425156 0.750000
vt 0.375000 0.680118
vt 0.425156 0.250000
vt 0.375000 0.069882
vt 0.425156 0.000000
vt 0.625000 0.000000
vt 0.375000 0.180118
vt 0.875000 0.500000
vt 0.875000 0.750000
vt 0.125000 0.569882
vt 0.125000 0.680118
s 0
usemtl Material
f 8/1/1 14/2/1 11/3/1 7/4/1
f 2/5/2 1/6/2 3/7/2 4/8/2
f 23/9/3 19/10/3 18/10/3 15/9/3
f 1/6/4 24/11/4 23/12/4 15/12/4 16/13/4 5/6/4
f 6/14/5 9/15/5 8/16/5 7/17/5
f 6/14/6 2/5/6 4/8/6 9/15/6
f 22/18/7 12/19/7 13/20/7 20/21/7
f 3/7/8 1/6/8 28/6/8 25/7/8
f 5/6/9 16/22/9 17/23/9 10/7/9
f 13/24/10 12/25/10 11/3/10 14/2/10
f 4/8/11 3/7/11 21/26/11 20/27/11 13/28/11 14/29/11 8/30/11 9/31/11
f 15/9/12 18/10/12 17/23/12 16/22/12
f 6/32/13 7/4/13 11/3/13 12/33/13 22/34/13 24/35/13 1/6/13 2/5/13
f 19/36/14 20/27/14 21/26/14
f 22/34/15 23/37/15 24/35/15
f 22/18/16 20/21/16 19/10/16 23/9/16
f 19/38/17 21/26/17 3/7/17 10/7/17 17/39/17 18/38/17
f 36/40/18 30/41/18 55/42/18 54/43/18 37/43/18
f 5/6/8 10/7/8 26/7/8 27/6/8
f 1/44/8 5/44/8 27/44/8 28/44/8
f 10/44/8 3/44/8 25/44/8 26/44/8
f 50/45/8 48/46/8 53/47/8 57/48/8
f 52/49/18 51/50/18 62/51/18 64/52/18 28/6/18 27/6/18
f 47/43/19 60/43/19 68/53/19 37/43/19 54/43/19
f 34/54/18 32/55/18 67/56/18 66/50/18 38/50/18
f 62/51/20 51/50/20 56/50/20 38/50/20 66/51/20
f 64/52/18 63/57/18 59/58/18 61/59/18 25/7/18 28/6/18
f 49/60/18 48/47/18 50/48/18 52/49/18 27/6/18 26/7/18
f 34/54/8 33/61/8 46/61/8 43/54/8
f 35/62/20 31/63/20 41/63/20 42/62/20
f 32/55/18 29/61/18 70/64/18 69/58/18 65/57/18 67/65/18
f 29/61/18 33/61/18 37/43/18 68/43/18 70/64/18
f 33/61/18 34/54/18 38/50/18 37/43/18
f 30/41/18 31/63/18 58/66/18 57/45/18 53/46/18 55/67/18
f 31/63/18 35/62/18 38/50/18 56/50/18 58/68/18
f 35/62/18 36/40/18 37/43/18 38/50/18
f 39/40/18 42/62/18 41/63/18 40/41/18
f 30/41/19 36/40/19 39/40/19 40/41/19
f 36/40/21 35/62/21 42/62/21 39/40/21
f 31/63/8 30/41/8 40/41/8 41/63/8
f 45/61/18 44/55/18 43/54/18 46/61/18
f 33/61/19 29/61/19 45/61/19 46/61/19
f 29/61/21 32/55/21 44/55/21 45/61/21
f 32/55/20 34/54/20 43/54/20 44/55/20
f 47/43/18 48/43/18 49/60/18
f 50/45/18 51/50/18 52/49/18
f 53/47/18 54/43/18 55/42/18
f 56/50/18 57/50/18 58/66/18
f 50/45/22 57/48/22 56/50/22 51/50/22
f 47/43/23 54/43/23 53/47/23 48/46/23
f 61/59/18 60/43/18 47/43/18 49/69/18 26/7/18 25/7/18
f 59/58/18 60/53/18 61/59/18
f 62/51/18 63/51/18 64/52/18
f 65/57/18 66/51/18 67/56/18
f 68/53/18 69/53/18 70/64/18
f 65/57/24 63/57/24 62/51/24 66/51/24
f 68/53/25 60/43/25 59/58/25 69/58/25
f 59/58/21 63/57/21 65/57/21 69/58/21
f 79/70/19 73/7/19 71/71/19 76/72/19
f 81/73/18 82/74/18 74/6/18 73/7/18 79/75/18 80/76/18
f 77/77/20 72/25/20 74/6/20 82/74/20
f 75/78/1 76/79/1 71/80/1 72/25/1 77/77/1 78/81/1
f 74/6/8 72/82/8 71/83/8 73/7/8
f 81/73/26 78/84/26 77/17/26 82/5/26
f 75/85/27 80/76/27 79/8/27 76/16/27
f 78/84/21 81/73/21 80/76/21 75/85/21
